<?xml version="1.0" standalone="no"?>
<!DOCTYPE svg PUBLIC "-//W3C//DTD SVG 20010904//EN"
 "http://www.w3.org/TR/2001/REC-SVG-20010904/DTD/svg10.dtd">
<svg version="1.0" xmlns="http://www.w3.org/2000/svg"
 width="152.000000pt" height="152.000000pt" viewBox="0 0 152.000000 152.000000"
 preserveAspectRatio="xMidYMid meet">
<metadata>
Created by potrace 1.14, written by Peter Selinger 2001-2017
</metadata>
<g transform="translate(0.000000,152.000000) scale(0.100000,-0.100000)"
fill="#000000" stroke="none">
<path d="M38 1241 l-33 -29 0 -450 0 -450 24 -26 c45 -48 131 -42 167 12 17
25 18 57 19 359 0 182 3 334 6 337 3 3 82 -26 176 -64 94 -39 181 -70 193 -70
52 0 110 57 110 107 0 37 -39 83 -92 107 -130 60 -484 196 -510 196 -17 0 -41
-12 -60 -29z"/>
<path d="M1355 1255 c-22 -8 -49 -19 -60 -25 -11 -5 -110 -46 -220 -90 -121
-48 -209 -90 -225 -105 -35 -35 -35 -103 -1 -139 46 -49 76 -46 265 30 94 38
176 69 181 69 6 0 10 -116 11 -325 1 -179 2 -332 3 -340 1 -8 12 -28 26 -44
18 -21 36 -30 69 -33 42 -5 48 -3 81 30 l35 35 0 441 -1 442 -27 30 c-33 36
-81 45 -137 24z"/>
</g>
</svg>
