{
    "asset" : {
        "generator" : "Khronos glTF Blender I/O v1.8.19",
        "version" : "2.0"
    },
    "scene" : 0,
    "scenes" : [
        {
            "name" : "Scene",
            "nodes" : [
                0
            ]
        }
    ],
    "nodes" : [
        {
            "extras" : {
                "mr displacement use global settings" : 1,
                "mr displacement view dependent" : 1,
                "mr displacement method" : 6,
                "mr displacement smoothing on" : 1,
                "mr displacement edge length" : 2.0,
                "mr displacement max displace" : 20.0,
                "mr displacement parametric subdivision level" : 5,
                "MapChannel:1" : "UVChannel_1",
                "MaxHandle" : 11
            },
            "mesh" : 0,
            "name" : "sun",
            "scale" : [
                80,
                80,
                80
            ],
            "translation" : [
                38.79155349731445,
                -245.38397216796875,
                51.870059967041016
            ]
        }
    ],
    "materials" : [
        {
            "doubleSided" : true,
            "emissiveFactor" : [
                1,
                1,
                1
            ],
            "emissiveTexture" : {
                "index" : 0
            },
            "name" : "Larus",
            "normalTexture" : {
                "index" : 1
            },
            "pbrMetallicRoughness" : {
                "baseColorTexture" : {
                    "index" : 2
                },
                "metallicFactor" : 0,
                "roughnessFactor" : 0.5
            }
        }
    ],
    "meshes" : [
        {
            "name" : "sunMesh",
            "primitives" : [
                {
                    "attributes" : {
                        "POSITION" : 0,
                        "NORMAL" : 1,
                        "TEXCOORD_0" : 2
                    },
                    "indices" : 3,
                    "material" : 0
                }
            ]
        }
    ],
    "textures" : [
        {
            "sampler" : 0,
            "source" : 0
        },
        {
            "sampler" : 0,
            "source" : 1
        },
        {
            "sampler" : 0,
            "source" : 2
        }
    ],
    "images" : [
        {
            "mimeType" : "image/png",
            "name" : "Larus_Emissive",
            "uri" : "Larus_Emissive.png"
        },
        {
            "mimeType" : "image/png",
            "name" : "Larus_Normal",
            "uri" : "Larus_Normal.png"
        },
        {
            "mimeType" : "image/png",
            "name" : "Larus_BaseColor",
            "uri" : "Larus_BaseColor.png"
        }
    ],
    "accessors" : [
        {
            "bufferView" : 0,
            "componentType" : 5126,
            "count" : 11904,
            "max" : [
                12.441537857055664,
                12.441537857055664,
                12.441537857055664
            ],
            "min" : [
                -12.441537857055664,
                -12.441537857055664,
                -12.441537857055664
            ],
            "type" : "VEC3"
        },
        {
            "bufferView" : 1,
            "componentType" : 5126,
            "count" : 11904,
            "type" : "VEC3"
        },
        {
            "bufferView" : 2,
            "componentType" : 5126,
            "count" : 11904,
            "type" : "VEC2"
        },
        {
            "bufferView" : 3,
            "componentType" : 5123,
            "count" : 11904,
            "type" : "SCALAR"
        }
    ],
    "bufferViews" : [
        {
            "buffer" : 0,
            "byteLength" : 142848,
            "byteOffset" : 0
        },
        {
            "buffer" : 0,
            "byteLength" : 142848,
            "byteOffset" : 142848
        },
        {
            "buffer" : 0,
            "byteLength" : 95232,
            "byteOffset" : 285696
        },
        {
            "buffer" : 0,
            "byteLength" : 23808,
            "byteOffset" : 380928
        }
    ],
    "samplers" : [
        {
            "magFilter" : 9729,
            "minFilter" : 9987
        }
    ],
    "buffers" : [
        {
            "byteLength" : 404736,
            "uri" : "Planets_organized.bin"
        }
    ]
}
