<svg id="Capa_1" data-name="Capa 1" xmlns="http://www.w3.org/2000/svg" xmlns:xlink="http://www.w3.org/1999/xlink" viewBox="0 0 296.646 90.294"><defs><style>.cls-1{fill:url(#Degradado_sin_nombre_31);}.cls-2{fill:url(#Degradado_sin_nombre_31-2);}.cls-3{fill:#fff;}</style><linearGradient id="Degradado_sin_nombre_31" x1="48.26" y1="83.486" x2="48.26" y2="6.716" gradientUnits="userSpaceOnUse"><stop offset="0.178" stop-color="#c89861"/><stop offset="1" stop-color="#f8dd9b"/></linearGradient><linearGradient id="Degradado_sin_nombre_31-2" x1="109.936" y1="83.579" x2="109.936" y2="6.808" xlink:href="#Degradado_sin_nombre_31"/></defs><path class="cls-1" d="M30.113,83.486a8.05,8.05,0,0,1-8.05-8.049V14.766A8.05,8.05,0,0,1,33.148,7.31L69.441,22.086A8.05,8.05,0,0,1,63.37,37L38.163,26.735v48.7A8.05,8.05,0,0,1,30.113,83.486Z"/><path class="cls-2" d="M128.19,83.579a8.05,8.05,0,0,1-8.05-8.05V26.8L94.705,37.1a8.049,8.049,0,1,1-6.04-14.923L125.17,7.4a8.05,8.05,0,0,1,11.07,7.462V75.529A8.05,8.05,0,0,1,128.19,83.579Z"/><path class="cls-3" d="M157.236,30.144a1.135,1.135,0,0,1,.3-.665.945.945,0,0,1,.73-.277h7.414a1,1,0,0,1,1.029.813l5.828,19.458,5.872-19.458A1.1,1.1,0,0,1,179.5,29.2h7.328a1.042,1.042,0,0,1,.7.266,1,1,0,0,1,.352.676q.753,7.542,1.534,14.968t1.531,14.969v.107q0,.835-.942.835h-6.064a.9.9,0,0,1-1.029-.942l-1.865-16.565-4.822,16.672a1.19,1.19,0,0,1-.31.513.739.739,0,0,1-.525.3H169.75a.813.813,0,0,1-.545-.289.915.915,0,0,1-.311-.525l-4.822-16.63-1.865,16.523q-.042.944-1.05.942h-6.064a.823.823,0,0,1-.922-.942Z"/><path class="cls-3" d="M196.71,30.144a1,1,0,0,1,.234-.665.876.876,0,0,1,.708-.277h6.3a1.212,1.212,0,0,1,.686.256.8.8,0,0,1,.364.686V60.081q0,.944-1.05.942h-6.3a.832.832,0,0,1-.942-.942Z"/><path class="cls-3" d="M211.988,30.144a1,1,0,0,1,.234-.665.876.876,0,0,1,.708-.277h7.008a1.459,1.459,0,0,1,.62.15,1.349,1.349,0,0,1,.558.513q2.721,4.393,5.4,8.658t5.421,8.657V30.015a1.061,1.061,0,0,1,.344-.6.905.905,0,0,1,.6-.213h6.107a1.158,1.158,0,0,1,.751.244.857.857,0,0,1,.3.7V60.188a.755.755,0,0,1-.257.631,1.112,1.112,0,0,1-.707.2h-6.836a.719.719,0,0,1-.494-.192,3.472,3.472,0,0,1-.449-.515L225.659,51q-2.786-4.608-5.658-9.322V60.081a.821.821,0,0,1-.985.942H212.93a.888.888,0,0,1-.718-.267.978.978,0,0,1-.224-.653Z"/><path class="cls-3" d="M274.583,45.145A15.793,15.793,0,0,1,274,49.462a15.431,15.431,0,0,1-1.65,3.815,15.885,15.885,0,0,1-5.861,5.646,16.561,16.561,0,0,1-3.911,1.554,17.211,17.211,0,0,1-4.35.546H247.668a1.355,1.355,0,0,1-.687-.171.771.771,0,0,1-.3-.729V30.186a1.054,1.054,0,0,1,.246-.728.934.934,0,0,1,.74-.279h10.564a16.746,16.746,0,0,1,4.34.558,16.466,16.466,0,0,1,3.9,1.584,16.76,16.76,0,0,1,3.311,2.465A15.244,15.244,0,0,1,272.344,37a16.225,16.225,0,0,1,1.65,3.836A15.6,15.6,0,0,1,274.583,45.145Zm-19.607-8.272V53.351h1.8c.328,0,.649-.01.965-.032s.628-.046.942-.074a8.614,8.614,0,0,0,3-.783,8.324,8.324,0,0,0,2.431-1.714,7.7,7.7,0,0,0,1.629-2.5,8.151,8.151,0,0,0,.589-3.129,8.031,8.031,0,0,0-.675-3.311,8.16,8.16,0,0,0-1.832-2.613,8.251,8.251,0,0,0-2.711-1.715,8.966,8.966,0,0,0-3.311-.61Z"/></svg>