{
    "asset" : {
        "generator" : "Khronos glTF Blender I/O v1.8.19",
        "version" : "2.0"
    },
    "scene" : 0,
    "scenes" : [
        {
            "name" : "Scene",
            "nodes" : [
                0,
                1
            ]
        }
    ],
    "nodes" : [
        {
            "mesh" : 0,
            "name" : "Asteroid1",
            "rotation" : [
                0.7071068286895752,
                0,
                0,
                0.7071067094802856
            ],
            "scale" : [
                0.5,
                0.5,
                0.5
            ],
            "translation" : [
                -1290,
                250,
                -3
            ]
        },
        {
            "mesh" : 1,
            "name" : "Asteroid2",
            "rotation" : [
                0.7071068286895752,
                0,
                0,
                0.7071067094802856
            ],
            "scale" : [
                0.5,
                0.5,
                0.5
            ],
            "translation" : [
                1290,
                250,
                -3
            ]
        }
    ],
    "materials" : [
        {
            "doubleSided" : true,
            "name" : "AsteroidGrey",
            "normalTexture" : {
                "index" : 0
            },
            "pbrMetallicRoughness" : {
                "baseColorTexture" : {
                    "index" : 1
                },
                "metallicFactor" : 0,
                "roughnessFactor" : 0.699999988079071
            }
        },
        {
            "doubleSided" : true,
            "name" : "AsteroidBrown",
            "normalTexture" : {
                "index" : 2
            },
            "pbrMetallicRoughness" : {
                "baseColorTexture" : {
                    "index" : 3
                },
                "metallicFactor" : 0,
                "roughnessFactor" : 0.699999988079071
            }
        }
    ],
    "meshes" : [
        {
            "name" : "Mesh.008",
            "primitives" : [
                {
                    "attributes" : {
                        "POSITION" : 0,
                        "NORMAL" : 1,
                        "TEXCOORD_0" : 2
                    },
                    "indices" : 3,
                    "material" : 0
                }
            ]
        },
        {
            "name" : "Mesh.010",
            "primitives" : [
                {
                    "attributes" : {
                        "POSITION" : 4,
                        "NORMAL" : 5,
                        "TEXCOORD_0" : 6
                    },
                    "indices" : 7,
                    "material" : 1
                }
            ]
        }
    ],
    "textures" : [
        {
            "sampler" : 0,
            "source" : 0
        },
        {
            "sampler" : 0,
            "source" : 1
        },
        {
            "sampler" : 0,
            "source" : 0
        },
        {
            "sampler" : 0,
            "source" : 2
        }
    ],
    "images" : [
        {
            "mimeType" : "image/jpeg",
            "name" : "Asteroids_Normal",
            "uri" : "Asteroids_Normal.jpg"
        },
        {
            "mimeType" : "image/jpeg",
            "name" : "Asteroids_Grey",
            "uri" : "Asteroids_Grey.jpg"
        },
        {
            "mimeType" : "image/jpeg",
            "name" : "Asteroids_Brown",
            "uri" : "Asteroids_Brown.jpg"
        }
    ],
    "accessors" : [
        {
            "bufferView" : 0,
            "componentType" : 5126,
            "count" : 738,
            "max" : [
                266.09991455078125,
                180.09426879882812,
                178.50381469726562
            ],
            "min" : [
                -266.09991455078125,
                -180.0942840576172,
                -178.5038604736328
            ],
            "type" : "VEC3"
        },
        {
            "bufferView" : 1,
            "componentType" : 5126,
            "count" : 738,
            "type" : "VEC3"
        },
        {
            "bufferView" : 2,
            "componentType" : 5126,
            "count" : 738,
            "type" : "VEC2"
        },
        {
            "bufferView" : 3,
            "componentType" : 5123,
            "count" : 738,
            "type" : "SCALAR"
        },
        {
            "bufferView" : 4,
            "componentType" : 5126,
            "count" : 1122,
            "max" : [
                206.21728515625,
                220.673583984375,
                218.63389587402344
            ],
            "min" : [
                -206.21728515625,
                -220.67361450195312,
                -218.63389587402344
            ],
            "type" : "VEC3"
        },
        {
            "bufferView" : 5,
            "componentType" : 5126,
            "count" : 1122,
            "type" : "VEC3"
        },
        {
            "bufferView" : 6,
            "componentType" : 5126,
            "count" : 1122,
            "type" : "VEC2"
        },
        {
            "bufferView" : 7,
            "componentType" : 5123,
            "count" : 1122,
            "type" : "SCALAR"
        }
    ],
    "bufferViews" : [
        {
            "buffer" : 0,
            "byteLength" : 8856,
            "byteOffset" : 0
        },
        {
            "buffer" : 0,
            "byteLength" : 8856,
            "byteOffset" : 8856
        },
        {
            "buffer" : 0,
            "byteLength" : 5904,
            "byteOffset" : 17712
        },
        {
            "buffer" : 0,
            "byteLength" : 1476,
            "byteOffset" : 23616
        },
        {
            "buffer" : 0,
            "byteLength" : 13464,
            "byteOffset" : 25092
        },
        {
            "buffer" : 0,
            "byteLength" : 13464,
            "byteOffset" : 38556
        },
        {
            "buffer" : 0,
            "byteLength" : 8976,
            "byteOffset" : 52020
        },
        {
            "buffer" : 0,
            "byteLength" : 2244,
            "byteOffset" : 60996
        }
    ],
    "samplers" : [
        {
            "magFilter" : 9729,
            "minFilter" : 9987
        }
    ],
    "buffers" : [
        {
            "byteLength" : 63240,
            "uri" : "Asteroides.bin"
        }
    ]
}
