{
    "asset" : {
        "generator" : "Khronos glTF Blender I/O v1.8.19",
        "version" : "2.0"
    },
    "scene" : 0,
    "scenes" : [
        {
            "name" : "Scene",
            "nodes" : [
                0,
                1
            ]
        }
    ],
    "nodes" : [
        {
            "mesh" : 0,
            "name" : "Asteroid1",
            "scale" : [
                7,
                7,
                7
            ],
            "translation" : [
                -1290,
                100,
                0
            ]
        },
        {
            "mesh" : 1,
            "name" : "Asteroid2",
            "scale" : [
                7,
                7,
                7
            ],
            "translation" : [
                1290,
                100,
                0
            ]
        }
    ],
    "materials" : [
        {
            "doubleSided" : true,
            "emissiveFactor" : [
                1,
                1,
                1
            ],
            "emissiveTexture" : {
                "index" : 0
            },
            "name" : "Larus",
            "normalTexture" : {
                "index" : 1
            },
            "pbrMetallicRoughness" : {
                "baseColorTexture" : {
                    "index" : 2
                },
                "metallicFactor" : 0,
                "roughnessFactor" : 0.5
            }
        }
    ],
    "meshes" : [
        {
            "name" : "Mesh.061",
            "primitives" : [
                {
                    "attributes" : {
                        "POSITION" : 0,
                        "NORMAL" : 1,
                        "TEXCOORD_0" : 2
                    },
                    "indices" : 3,
                    "material" : 0
                }
            ]
        },
        {
            "name" : "Mesh.008",
            "primitives" : [
                {
                    "attributes" : {
                        "POSITION" : 4,
                        "NORMAL" : 5,
                        "TEXCOORD_0" : 6
                    },
                    "indices" : 3,
                    "material" : 0
                }
            ]
        }
    ],
    "textures" : [
        {
            "sampler" : 0,
            "source" : 0
        },
        {
            "sampler" : 0,
            "source" : 1
        },
        {
            "sampler" : 0,
            "source" : 2
        }
    ],
    "images" : [
        {
            "mimeType" : "image/jpeg",
            "name" : "Larus_Emissive",
            "uri" : "Larus_Emissive.jpg"
        },
        {
            "mimeType" : "image/jpeg",
            "name" : "Larus_Normal",
            "uri" : "Larus_Normal.jpg"
        },
        {
            "mimeType" : "image/jpeg",
            "name" : "Larus_BaseColor",
            "uri" : "Larus_BaseColor.jpg"
        }
    ],
    "accessors" : [
        {
            "bufferView" : 0,
            "componentType" : 5126,
            "count" : 11904,
            "max" : [
                12.441537857055664,
                12.441537857055664,
                12.441537857055664
            ],
            "min" : [
                -12.441537857055664,
                -12.441537857055664,
                -12.441537857055664
            ],
            "type" : "VEC3"
        },
        {
            "bufferView" : 1,
            "componentType" : 5126,
            "count" : 11904,
            "type" : "VEC3"
        },
        {
            "bufferView" : 2,
            "componentType" : 5126,
            "count" : 11904,
            "type" : "VEC2"
        },
        {
            "bufferView" : 3,
            "componentType" : 5123,
            "count" : 11904,
            "type" : "SCALAR"
        },
        {
            "bufferView" : 4,
            "componentType" : 5126,
            "count" : 11904,
            "max" : [
                12.441537857055664,
                12.441537857055664,
                12.441537857055664
            ],
            "min" : [
                -12.441537857055664,
                -12.441537857055664,
                -12.441537857055664
            ],
            "type" : "VEC3"
        },
        {
            "bufferView" : 5,
            "componentType" : 5126,
            "count" : 11904,
            "type" : "VEC3"
        },
        {
            "bufferView" : 6,
            "componentType" : 5126,
            "count" : 11904,
            "type" : "VEC2"
        }
    ],
    "bufferViews" : [
        {
            "buffer" : 0,
            "byteLength" : 142848,
            "byteOffset" : 0
        },
        {
            "buffer" : 0,
            "byteLength" : 142848,
            "byteOffset" : 142848
        },
        {
            "buffer" : 0,
            "byteLength" : 95232,
            "byteOffset" : 285696
        },
        {
            "buffer" : 0,
            "byteLength" : 23808,
            "byteOffset" : 380928
        },
        {
            "buffer" : 0,
            "byteLength" : 142848,
            "byteOffset" : 404736
        },
        {
            "buffer" : 0,
            "byteLength" : 142848,
            "byteOffset" : 547584
        },
        {
            "buffer" : 0,
            "byteLength" : 95232,
            "byteOffset" : 690432
        }
    ],
    "samplers" : [
        {
            "magFilter" : 9729,
            "minFilter" : 9987
        }
    ],
    "buffers" : [
        {
            "byteLength" : 785664,
            "uri" : "Asteroides.bin"
        }
    ]
}
